<svg height="64" preserveAspectRatio="none" viewBox="0 0 64 64" width="64" xmlns="http://www.w3.org/2000/svg" xmlns:xlink="http://www.w3.org/1999/xlink"><linearGradient id="a" gradientUnits="userSpaceOnUse" x1="32" x2="32" y1="7" y2="41.25"><stop offset="0" stop-color="#fff"/><stop offset="1" stop-color="#fff" stop-opacity="0"/></linearGradient><linearGradient id="b" gradientUnits="userSpaceOnUse" x1="32" x2="32" y1="9" y2="42"><stop offset="0" stop-color="#fff" stop-opacity=".5"/><stop offset=".6477876" stop-color="#fff" stop-opacity="0"/></linearGradient><linearGradient id="c"><stop offset="0" stop-color="#926134" stop-opacity=".6"/><stop offset=".4" stop-color="#926134" stop-opacity=".2"/><stop offset=".6" stop-color="#926134" stop-opacity=".2"/><stop offset="1" stop-color="#926134" stop-opacity=".6"/></linearGradient><linearGradient id="d" gradientUnits="userSpaceOnUse" x1="8.25" x2="55.75" xlink:href="#c" y1="28.367092" y2="28.367092"/><linearGradient id="e" gradientUnits="userSpaceOnUse" x1="8.25" x2="55.75" xlink:href="#c" y1="29.220104" y2="29.220104"/><linearGradient id="f" gradientUnits="userSpaceOnUse" x1="8.25" x2="55.75" xlink:href="#c" y1="30.073103" y2="30.073103"/><linearGradient id="g" gradientUnits="userSpaceOnUse" x1="8.25" x2="55.75" xlink:href="#c" y1="30.926117" y2="30.926117"/><linearGradient id="h" gradientUnits="userSpaceOnUse" x1="8.25" x2="55.75" xlink:href="#c" y1="31.779129" y2="31.779129"/><linearGradient id="i" gradientUnits="userSpaceOnUse" x1="8.25" x2="55.75" xlink:href="#c" y1="32.632126" y2="32.632126"/><linearGradient id="j" gradientUnits="userSpaceOnUse" x1="8.25" x2="55.75" xlink:href="#c" y1="33.485142" y2="33.485142"/><linearGradient id="k" gradientUnits="userSpaceOnUse" x1="8.25" x2="55.75" xlink:href="#c" y1="34.338154" y2="34.338154"/><linearGradient id="l" gradientUnits="userSpaceOnUse" x1="8.25" x2="55.75" xlink:href="#c" y1="35.191166" y2="35.191166"/><linearGradient id="m" gradientUnits="userSpaceOnUse" x1="8.25" x2="55.75" xlink:href="#c" y1="36.044167" y2="36.044167"/><linearGradient id="n" gradientUnits="userSpaceOnUse" x1="8.25" x2="55.75" xlink:href="#c" y1="36.897179" y2="36.897179"/><linearGradient id="o" gradientUnits="userSpaceOnUse" x1="8.25" x2="55.75" xlink:href="#c" y1="37.750191" y2="37.750191"/><linearGradient id="p" gradientUnits="userSpaceOnUse" x1="8.25" x2="55.75" xlink:href="#c" y1="38.603191" y2="38.603191"/><linearGradient id="q" gradientUnits="userSpaceOnUse" x1="8.25" x2="55.75" xlink:href="#c" y1="39.456203" y2="39.456203"/><linearGradient id="r" gradientUnits="userSpaceOnUse" x1="8.25" x2="55.75" xlink:href="#c" y1="40.309216" y2="40.309216"/><linearGradient id="s" gradientUnits="userSpaceOnUse" x1="8.25" x2="55.75" xlink:href="#c" y1="41.162228" y2="41.162228"/><linearGradient id="t" gradientUnits="userSpaceOnUse" x1="8.25" x2="55.75" xlink:href="#c" y1="42.015228" y2="42.015228"/><linearGradient id="u" gradientUnits="userSpaceOnUse" x1="8.25" x2="55.75" xlink:href="#c" y1="42.86824" y2="42.86824"/><linearGradient id="v" gradientUnits="userSpaceOnUse" x1="8.25" x2="55.75" xlink:href="#c" y1="43.756786" y2="43.756786"/><linearGradient id="w" gradientUnits="userSpaceOnUse" x1="8.25" x2="55.75" xlink:href="#c" y1="44.609802" y2="44.609802"/><linearGradient id="x" gradientUnits="userSpaceOnUse" x1="8.25" x2="55.75" xlink:href="#c" y1="45.462814" y2="45.462814"/><linearGradient id="y" gradientUnits="userSpaceOnUse" x1="8.25" x2="55.75" xlink:href="#c" y1="46.315811" y2="46.315811"/><linearGradient id="z" gradientUnits="userSpaceOnUse" x1="8.25" x2="55.75" xlink:href="#c" y1="47.168823" y2="47.168823"/><linearGradient id="A" gradientUnits="userSpaceOnUse" x1="8.25" x2="55.75" xlink:href="#c" y1="48.021839" y2="48.021839"/><linearGradient id="B" gradientUnits="userSpaceOnUse" x1="8.25" x2="55.75" xlink:href="#c" y1="48.874851" y2="48.874851"/><linearGradient id="C" gradientUnits="userSpaceOnUse" x1="8.25" x2="55.75" xlink:href="#c" y1="49.727848" y2="49.727848"/><linearGradient id="D" gradientUnits="userSpaceOnUse" x1="8.25" x2="55.75" xlink:href="#c" y1="50.580864" y2="50.580864"/><linearGradient id="E" gradientUnits="userSpaceOnUse" x1="8.25" x2="55.75" xlink:href="#c" y1="51.433876" y2="51.433876"/><linearGradient id="F" gradientUnits="userSpaceOnUse" x1="8.25" x2="55.75" xlink:href="#c" y1="52.286873" y2="52.286873"/><linearGradient id="G" gradientUnits="userSpaceOnUse" x1="8.25" x2="55.75" xlink:href="#c" y1="53.139889" y2="53.139889"/><linearGradient id="H" gradientUnits="userSpaceOnUse" x1="8.25" x2="55.75" xlink:href="#c" y1="53.992901" y2="53.992901"/><linearGradient id="I" gradientUnits="userSpaceOnUse" x1="8.25" x2="55.75" xlink:href="#c" y1="54.845913" y2="54.845913"/><radialGradient id="J" cx="32" cy="23.541666" gradientTransform="matrix(1 0 0 .5471408 0 13.427085)" gradientUnits="userSpaceOnUse" r="27.626131"><stop offset="0" stop-color="#fff" stop-opacity=".5"/><stop offset="1" stop-color="#fff" stop-opacity="0"/></radialGradient><linearGradient id="K" gradientUnits="userSpaceOnUse" x1="12" x2="52" y1="42" y2="42"><stop offset="0" stop-color="#ffefd9" stop-opacity=".4"/><stop offset=".07" stop-color="#ffefd9" stop-opacity="0"/><stop offset=".9299999" stop-color="#ffefd9" stop-opacity="0"/><stop offset="1" stop-color="#ffefd9" stop-opacity=".4"/></linearGradient><linearGradient id="L" gradientUnits="userSpaceOnUse" x1="9.5" x2="54.5" y1="42" y2="42"><stop offset="0" stop-color="#926134"/><stop offset=".07" stop-color="#926134" stop-opacity="0"/><stop offset=".93" stop-color="#926134" stop-opacity="0"/><stop offset="1" stop-color="#926134"/></linearGradient><linearGradient id="M" gradientUnits="userSpaceOnUse" x1="32" x2="32" y1="27" y2="57"><stop offset="0" stop-color="#926134" stop-opacity=".8"/><stop offset=".05" stop-color="#926134" stop-opacity="0"/><stop offset=".93" stop-color="#926134" stop-opacity="0"/><stop offset="1" stop-color="#926134"/></linearGradient><g transform="matrix(.46808511 0 0 .4680939 17.021277 -1.149446)"><path d="m32 4.75c-11.57959 0-21 9.42041-21 21v5c0 1.240723 1.009277 2.25 2.25 2.25h5c1.240723 0 2.25-1.009277 2.25-2.25v-5c0-6.341309 5.158691-11.5 11.5-11.5 6.34082 0 11.5 5.158691 11.5 11.5v18.5h9.5v-18.5c0-11.57959-9.420898-21-21-21z" fill="#717071"/><path d="m32 5.75c-11.045715 0-20 8.954285-20 20v5c0 .690369.559631 1.25 1.25 1.25h5c.690369 0 1.25-.559631 1.25-1.25v-1.25h-1.25v-1.25h1.25v-2.5c0-6.903565 5.596435-12.5 12.5-12.5s12.5 5.596435 12.5 12.5v17.5h7.5v-17.5c0-11.045715-8.954285-20-20-20z" fill="#c6c7c8"/><path d="m32 6.75c10.476639 0 19 8.52336 19 19v16.5h-5.5v-16.5c0-7.44393-6.056068-13.5-13.5-13.5s-13.5 6.05607-13.5 13.5v1.5h-.25-1v1 1.25 1h1 .25v.25c0 .13785-.11215.25-.25.25h-5c-.13785 0-.25-.11215-.25-.25v-5c0-10.47664 8.523361-19 19-19m0-1c-11.045719 0-20 8.95428-20 20v5c0 .690371.55963 1.25 1.25 1.25h5c.690371 0 1.25-.559629 1.25-1.25v-1.25h-1.25v-1.25h1.25v-2.5c0-6.903561 5.596439-12.5 12.5-12.5s12.5 5.596439 12.5 12.5v17.5h7.5v-17.5c0-11.04572-8.954281-20-20-20z" fill="#9c9c9d"/><path d="m50.75 41.25v-15.5c0-9.925293-7.5-18.75-18.75-18.75s-18.75 8.824707-18.75 18.75v4.25h1.25v-4.25c0-7.995117 6.25-17.5 17.5-17.5s17.5 9.504883 17.5 17.5v15.5z" fill="url(#a)"/><path d="m48.75 42h-1v-16.25c0-8.68457-7.06543-15.75-15.75-15.75s-15.75 7.06543-15.75 15.75v3.75h-1v-3.75c0-9.23584 7.51416-16.75 16.75-16.75 9.236328 0 16.75 7.51416 16.75 16.75z" fill="url(#b)"/><path d="m52.5 26h-41c-1.6542969 0-3 1.276855-3 2.846191v26.308106c0 1.569336 1.3457031 2.845703 3 2.845703h41c1.654297 0 3-1.276367 3-2.845703v-26.308106c0-1.569336-1.345703-2.846191-3-2.846191z" fill="#4a3117"/><path d="m54.5 55.153847c0 1.019604-.895432 1.846153-2 1.846153h-41c-1.104569 0-2-.826549-2-1.846153v-26.307694c0-1.019602.895431-1.846153 2-1.846153h41c1.104568 0 2 .826551 2 1.846153z" fill="#c59d62"/><path d="m54.5 28.527037c0-.132202-.05426-.257784-.148315-.37319h-44.7033696c-.0940551.115406-.1483154.240988-.1483154.37319v.0533h45z" fill="url(#d)"/><path d="m9.5 29.006859h45v.426491h-45z" fill="url(#e)"/><path d="m9.5 29.859844h45v.426522h-45z" fill="url(#f)"/><path d="m9.5 30.712856h45v.426522h-45z" fill="url(#g)"/><path d="m9.5 31.565868h45v.426522h-45z" fill="url(#h)"/><path d="m9.5 32.41888h45v.426491h-45z" fill="url(#i)"/><path d="m9.5 33.271893h45v.426491h-45z" fill="url(#j)"/><path d="m9.5 34.124908h45v.426491h-45z" fill="url(#k)"/><path d="m9.5 34.977921h45v.426491h-45z" fill="url(#l)"/><path d="m9.5 35.830902h45v.426522h-45z" fill="url(#m)"/><path d="m9.5 36.683918h45v.426522h-45z" fill="url(#n)"/><path d="m9.5 37.53693h45v.426522h-45z" fill="url(#o)"/><path d="m9.5 38.389942h45v.426491h-45z" fill="url(#p)"/><path d="m9.5 39.242958h45v.426491h-45z" fill="url(#q)"/><path d="m9.5 40.09597h45v.426491h-45z" fill="url(#r)"/><path d="m9.5 40.948982h45v.426491h-45z" fill="url(#s)"/><path d="m9.5 41.801968h45v.426522h-45z" fill="url(#t)"/><path d="m9.5 42.708309c0 .132202.05426.257786.1483154.373192h44.7033696c.094055-.115406.148315-.24099.148315-.373192v-.05333h-45z" fill="url(#u)"/><path d="m9.5 43.543526h45v.426522h-45z" fill="url(#v)"/><path d="m9.5 44.396538h45v.426522h-45z" fill="url(#w)"/><path d="m9.5 45.249554h45v.426522h-45z" fill="url(#x)"/><path d="m9.5 46.102566h45v.426491h-45z" fill="url(#y)"/><path d="m9.5 46.955578h45v.426491h-45z" fill="url(#z)"/><path d="m9.5 47.808594h45v.426491h-45z" fill="url(#A)"/><path d="m9.5 48.661606h45v.426491h-45z" fill="url(#B)"/><path d="m9.5 49.514587h45v.426522h-45z" fill="url(#C)"/><path d="m9.5 50.367603h45v.426522h-45z" fill="url(#D)"/><path d="m9.5 51.220615h45v.426522h-45z" fill="url(#E)"/><path d="m9.5 52.073627h45v.426491h-45z" fill="url(#F)"/><path d="m9.5 52.92664h45v.426491h-45z" fill="url(#G)"/><path d="m9.5 53.779655h45v.426491h-45z" fill="url(#H)"/><path d="m9.5 54.632668h45v.426491h-45z" fill="url(#I)"/><path d="m54.5 55.153847c0 1.019604-.895432 1.846153-2 1.846153h-41c-1.104569 0-2-.826549-2-1.846153v-26.307694c0-1.019602.895431-1.846153 2-1.846153h41c1.104568 0 2 .826551 2 1.846153z" fill="url(#J)"/><path d="m52 54.142013c0 .94117-.795937 1.70414-1.777779 1.70414h-36.444443c-.981839 0-1.777778-.76297-1.777778-1.70414v-24.284025c0-.941171.795939-1.704141 1.777778-1.704141h36.444442c.981842 0 1.777779.76297 1.777779 1.704141v24.284025z" fill="url(#K)"/><path d="m54.5 55.153847c0 1.019604-.895432 1.846153-2 1.846153h-41c-1.104569 0-2-.826549-2-1.846153v-26.307694c0-1.019602.895431-1.846153 2-1.846153h41c1.104568 0 2 .826551 2 1.846153z" fill="url(#L)"/><path d="m54.5 55.153847c0 1.019604-.895432 1.846153-2 1.846153h-41c-1.104569 0-2-.826549-2-1.846153v-26.307694c0-1.019602.895431-1.846153 2-1.846153h41c1.104568 0 2 .826551 2 1.846153z" fill="url(#M)"/></g></svg>